<?xml version="1.0" encoding="UTF-8"?>
<svg id="Livello_3" data-name="Livello 3" xmlns="http://www.w3.org/2000/svg" xmlns:xlink="http://www.w3.org/1999/xlink" viewBox="0 0 1720 400">
  <defs>
    <style>
      .cls-1 {
        fill: url(#linear-gradient);
      }

      .cls-1, .cls-2, .cls-3 {
        stroke-width: 0px;
      }

      .cls-2 {
        fill: url(#linear-gradient-2);
      }

      .cls-3 {
        fill: #053345;
      }
    </style>
    <linearGradient id="linear-gradient" x1="631.84" y1="85.65" x2="706.22" y2="85.65" gradientUnits="userSpaceOnUse">
      <stop offset="0" stop-color="#ffb86a"/>
      <stop offset="0" stop-color="#feb769"/>
      <stop offset=".32" stop-color="#f2993c"/>
      <stop offset=".61" stop-color="#e8831b"/>
      <stop offset=".84" stop-color="#e37507"/>
      <stop offset="1" stop-color="#e17100"/>
    </linearGradient>
    <linearGradient id="linear-gradient-2" x1="669.03" y1="126.19" x2="669.03" y2="45.1" gradientTransform="translate(-1.38 159.75) rotate(-13.6)" xlink:href="#linear-gradient"/>
  </defs>
  <path class="cls-3" d="M178.99,361.66c-16.81,0-30.16-1.45-40.08-4.34-9.92-2.89-17.01-8.53-21.28-16.94-4.27-8.4-6.4-20.59-6.4-36.57v-99.17h-33.88v-47.93h33.88v-51.24h62.8v51.24h44.62v47.93h-44.62v82.64c0,9.65,1.86,15.91,5.58,18.8s10.67,4.34,20.87,4.34h18.18v51.24h-39.67Z"/>
  <path class="cls-3" d="M249.23,361.66v-204.94h54.96l7.85,27.27c4.68-7.71,12.4-15.15,23.14-22.31,10.74-7.16,23.69-10.74,38.84-10.74,16.25,0,29.27,2.89,39.05,8.68,9.77,5.79,17.01,14.33,21.69,25.62,7.99-11.29,18.11-19.83,30.37-25.62,12.25-5.78,25.55-8.68,39.87-8.68,26.17,0,44.21,7.37,54.13,22.11,9.92,14.74,14.87,36.02,14.87,63.84v124.78h-62.8v-109.08c0-9.64-.55-18.45-1.65-26.44-1.1-7.99-3.86-14.39-8.26-19.21-4.41-4.82-11.71-7.23-21.9-7.23-12.67,0-21.9,4.48-27.68,13.43-5.79,8.96-8.68,22.38-8.68,40.29v108.26h-63.22v-109.08c0-9.64-.48-18.45-1.45-26.44-.97-7.99-3.58-14.39-7.85-19.21-4.27-4.82-11.36-7.23-21.28-7.23-12.95,0-22.38,4.69-28.3,14.05-5.93,9.37-8.88,23-8.88,40.91v107.02h-62.81Z"/>
  <polygon class="cls-3" points="637.21 361.66 637.21 204.65 598.38 204.65 598.38 156.72 700.43 156.72 700.43 361.66 637.21 361.66"/>
  <path class="cls-1" d="M669.03,122.83c-10.19,0-18.94-3.65-26.24-10.95-7.3-7.29-10.95-16.04-10.95-26.24s3.65-19.28,10.95-26.44c7.29-7.16,16.04-10.74,26.24-10.74s19.28,3.58,26.44,10.74c7.16,7.17,10.74,15.98,10.74,26.44s-3.58,18.94-10.74,26.24c-7.17,7.3-15.98,10.95-26.44,10.95Z"/>
  <g>
    <path class="cls-3" d="M826.34,361.37c-5.02,0-8.88-.5-11.6-1.52-2.72-1.01-4.59-2.96-5.6-5.84-1.02-2.88-1.52-7.04-1.52-12.48v-48.8h-13.44v-10.72h13.44v-20h13.44v20h15.36v10.72h-15.36v46.56c0,4.05.4,6.78,1.2,8.16.8,1.39,3.12,2.08,6.96,2.08h7.2v11.84h-10.08Z"/>
    <path class="cls-3" d="M861.05,361.37v-68.64h-11.04v-10.72h24.48v79.36h-13.44ZM867.77,266.97c-2.67,0-4.99-.98-6.96-2.96-1.97-1.97-2.96-4.34-2.96-7.12s.99-5.12,2.96-7.04c1.97-1.92,4.29-2.88,6.96-2.88s5.15.96,7.12,2.88c1.97,1.92,2.96,4.27,2.96,7.04s-.99,5.15-2.96,7.12c-1.97,1.98-4.35,2.96-7.12,2.96Z"/>
    <path class="cls-3" d="M898.5,361.37v-79.36h9.92l3.52,12c2.24-3.73,5.31-6.88,9.2-9.44,3.89-2.56,8.77-3.84,14.64-3.84s10.98,1.23,14.72,3.68c3.73,2.46,6.45,5.87,8.16,10.24,3.2-4.91,7.06-8.45,11.6-10.64,4.53-2.18,9.57-3.28,15.12-3.28,9.17,0,15.73,2.8,19.68,8.4,3.95,5.6,5.92,12.94,5.92,22v50.24h-13.44v-46.24c0-4.05-.4-7.81-1.2-11.28-.8-3.47-2.4-6.27-4.8-8.4-2.4-2.13-6.06-3.2-10.96-3.2-5.76,0-10.38,2.21-13.84,6.64-3.47,4.43-5.2,10.91-5.2,19.44v43.04h-13.44v-46.24c0-4.05-.4-7.81-1.2-11.28-.8-3.47-2.4-6.27-4.8-8.4-2.4-2.13-6.05-3.2-10.96-3.2-5.76,0-10.4,2.21-13.92,6.64-3.52,4.43-5.28,10.91-5.28,19.44v43.04h-13.44Z"/>
    <path class="cls-3" d="M1065.06,363.29c-8.32,0-15.36-1.84-21.12-5.52-5.76-3.68-10.16-8.64-13.2-14.88-3.04-6.24-4.56-13.25-4.56-21.04,0-8.43,1.71-15.71,5.12-21.84,3.41-6.13,8.02-10.88,13.84-14.24,5.81-3.36,12.34-5.04,19.6-5.04,6.29,0,11.84,1.25,16.64,3.76,4.8,2.51,8.77,5.87,11.92,10.08,3.14,4.21,5.44,8.99,6.88,14.32,1.44,5.34,1.95,10.83,1.52,16.48h-61.12c.21,6.62,1.68,11.84,4.4,15.68s5.95,6.54,9.68,8.08c3.73,1.55,7.2,2.32,10.4,2.32,4.48,0,8.24-.72,11.28-2.16,3.04-1.44,5.46-3.33,7.28-5.68l12.96,3.84c-2.88,4.59-6.99,8.38-12.32,11.36-5.33,2.98-11.74,4.48-19.2,4.48ZM1040.74,314.65h46.72c0-3.73-.94-7.31-2.8-10.72-1.87-3.41-4.48-6.21-7.84-8.4-3.36-2.19-7.39-3.28-12.08-3.28-3.95,0-7.68.75-11.2,2.24-3.52,1.5-6.43,3.89-8.72,7.2-2.29,3.31-3.65,7.63-4.08,12.96Z"/>
    <path class="cls-3" d="M1186.49,361.37c-5.02,0-8.88-.5-11.6-1.52-2.72-1.01-4.59-2.96-5.6-5.84-1.02-2.88-1.52-7.04-1.52-12.48v-48.8h-13.44v-10.72h13.44v-20h13.44v20h15.36v10.72h-15.36v46.56c0,4.05.4,6.78,1.2,8.16.8,1.39,3.12,2.08,6.96,2.08h7.2v11.84h-10.08Z"/>
    <path class="cls-3" d="M1214.17,361.37v-79.36h9.76l4.32,14.72c2.77-4.8,6.53-8.67,11.28-11.6,4.75-2.93,10.43-4.4,17.04-4.4v13.92h-2.32c-.8,0-1.58.05-2.32.16-9.07.75-15.39,3.89-18.96,9.44-3.58,5.55-5.36,13.23-5.36,23.04v34.08h-13.44Z"/>
    <path class="cls-3" d="M1288.41,363.29c-5.02,0-9.6-.91-13.76-2.72s-7.47-4.42-9.92-7.84c-2.46-3.41-3.68-7.52-3.68-12.32,0-6.29,2.21-11.25,6.64-14.88,4.42-3.62,10.67-6.42,18.72-8.4,8.05-1.97,17.46-3.54,28.24-4.72.21-6.72-1.12-11.89-4-15.52-2.88-3.62-7.52-5.44-13.92-5.44-4.8,0-8.72,1.09-11.76,3.28-3.04,2.19-4.99,5.2-5.84,9.04l-12.96-3.84c2.13-6.08,5.94-10.8,11.44-14.16,5.49-3.36,11.81-5.04,18.96-5.04,10.99,0,19.01,2.59,24.08,7.76,5.07,5.17,7.6,13.31,7.6,24.4v18.56c0,6.62.26,12.32.8,17.12.53,4.8,1.17,9.07,1.92,12.8h-12.32l-3.2-10.88c-2.35,3.95-5.71,7.07-10.08,9.36-4.38,2.29-10.03,3.44-16.96,3.44ZM1291.29,352.57c4.16,0,8.1-.75,11.84-2.24,3.73-1.49,6.77-4.03,9.12-7.6,2.34-3.57,3.52-8.45,3.52-14.64v-4.96c-8.11.86-15.15,1.9-21.12,3.12-5.97,1.23-10.59,2.94-13.84,5.12-3.25,2.19-4.88,5.09-4.88,8.72s1.36,6.75,4.08,9.04c2.72,2.29,6.48,3.44,11.28,3.44Z"/>
    <path class="cls-3" d="M1382.17,363.29c-7.58,0-14.13-1.79-19.68-5.36-5.55-3.57-9.82-8.45-12.8-14.64-2.99-6.18-4.48-13.28-4.48-21.28s1.57-14.96,4.72-21.2c3.15-6.24,7.6-11.15,13.36-14.72,5.76-3.57,12.53-5.36,20.32-5.36,7.14,0,13.28,1.76,18.4,5.28,5.12,3.52,8.96,7.74,11.52,12.64l-12.32,4.48c-1.71-3.2-4.21-5.76-7.52-7.68-3.31-1.92-6.99-2.88-11.04-2.88s-7.68,1.04-11.2,3.12c-3.52,2.08-6.35,5.28-8.48,9.6-2.13,4.32-3.2,9.84-3.2,16.56s1.09,12.13,3.28,16.56c2.19,4.43,5.01,7.71,8.48,9.84,3.46,2.13,7.17,3.2,11.12,3.2,4.37,0,8.19-.99,11.44-2.96,3.25-1.97,5.73-4.45,7.44-7.44l12.32,4.48c-2.99,5.12-7.25,9.36-12.8,12.72-5.55,3.36-11.84,5.04-18.88,5.04Z"/>
    <path class="cls-3" d="M1430.33,361.37v-106.88h13.44v63.2l32-35.68h16.16l-29.92,32.8,33.92,46.56h-16.48l-26.4-36.64-9.28,10.08v26.56h-13.44Z"/>
    <path class="cls-3" d="M1540.09,363.29c-8.32,0-15.36-1.84-21.12-5.52-5.76-3.68-10.16-8.64-13.2-14.88-3.04-6.24-4.56-13.25-4.56-21.04,0-8.43,1.71-15.71,5.12-21.84,3.41-6.13,8.02-10.88,13.84-14.24,5.81-3.36,12.34-5.04,19.6-5.04,6.29,0,11.84,1.25,16.64,3.76,4.8,2.51,8.77,5.87,11.92,10.08,3.14,4.21,5.44,8.99,6.88,14.32,1.44,5.34,1.95,10.83,1.52,16.48h-61.12c.21,6.62,1.68,11.84,4.4,15.68s5.95,6.54,9.68,8.08c3.73,1.55,7.2,2.32,10.4,2.32,4.48,0,8.24-.72,11.28-2.16,3.04-1.44,5.46-3.33,7.28-5.68l12.96,3.84c-2.88,4.59-6.99,8.38-12.32,11.36-5.33,2.98-11.74,4.48-19.2,4.48ZM1515.77,314.65h46.72c0-3.73-.94-7.31-2.8-10.72-1.87-3.41-4.48-6.21-7.84-8.4-3.36-2.19-7.39-3.28-12.08-3.28-3.95,0-7.68.75-11.2,2.24-3.52,1.5-6.43,3.89-8.72,7.2-2.29,3.31-3.65,7.63-4.08,12.96Z"/>
    <path class="cls-3" d="M1592.57,361.37v-79.36h9.76l4.32,14.72c2.77-4.8,6.53-8.67,11.28-11.6,4.75-2.93,10.43-4.4,17.04-4.4v13.92h-2.32c-.8,0-1.58.05-2.32.16-9.07.75-15.39,3.89-18.96,9.44-3.58,5.55-5.36,13.23-5.36,23.04v34.08h-13.44Z"/>
  </g>
  <path class="cls-2" d="M690.27,50.84c-9.44-5.76-19.71-7.29-30.81-4.6h0s5.39,22.29,5.39,22.29c2.34,9.66-3.6,19.39-13.26,21.73l-21.87,5.29c2.66,10.62,8.74,18.83,18.23,24.63,9.6,5.87,19.81,7.49,30.61,4.88,11.09-2.68,19.49-8.81,25.22-18.38,5.72-9.57,7.27-19.76,4.66-30.56s-8.74-19.51-18.17-25.27Z"/>
</svg>